<svg width="246" height="75" viewBox="0 0 246 75" fill="none" xmlns="http://www.w3.org/2000/svg">
<path d="M90.6954 60V15.0088H107.567C111.023 15.0088 113.923 15.6532 116.267 16.942C118.625 18.2308 120.404 20.0029 121.605 22.2584C122.82 24.4991 123.428 27.0475 123.428 29.9033C123.428 32.7885 122.82 35.3515 121.605 37.5923C120.389 39.833 118.595 41.5978 116.223 42.8866C113.85 44.1608 110.928 44.7979 107.457 44.7979H96.2754V38.0975H106.359C108.38 38.0975 110.035 37.7461 111.324 37.0431C112.613 36.3401 113.564 35.3735 114.18 34.1432C114.809 32.913 115.124 31.4997 115.124 29.9033C115.124 28.307 114.809 26.901 114.18 25.6854C113.564 24.4698 112.605 23.5252 111.302 22.8515C110.013 22.1632 108.351 21.819 106.315 21.819H98.8457V60H90.6954ZM126.444 60V26.2566H134.155V31.8805H134.507C135.122 29.9326 136.176 28.4315 137.67 27.377C139.179 26.3079 140.899 25.7733 142.833 25.7733C143.272 25.7733 143.763 25.7953 144.305 25.8392C144.861 25.8685 145.322 25.9198 145.689 25.993V33.3084C145.352 33.1913 144.817 33.0888 144.085 33.0009C143.367 32.8984 142.672 32.8471 141.998 32.8471C140.548 32.8471 139.245 33.162 138.088 33.7917C136.945 34.4069 136.044 35.2636 135.385 36.362C134.726 37.4605 134.397 38.7273 134.397 40.1626V60H126.444ZM160.59 60.6591C157.294 60.6591 154.438 59.9341 152.022 58.4842C149.605 57.0343 147.731 55.0059 146.398 52.3989C145.08 49.792 144.421 46.7458 144.421 43.2601C144.421 39.7745 145.08 36.7209 146.398 34.0993C147.731 31.4777 149.605 29.442 152.022 27.9921C154.438 26.5422 157.294 25.8172 160.59 25.8172C163.885 25.8172 166.741 26.5422 169.157 27.9921C171.574 29.442 173.441 31.4777 174.759 34.0993C176.092 36.7209 176.758 39.7745 176.758 43.2601C176.758 46.7458 176.092 49.792 174.759 52.3989C173.441 55.0059 171.574 57.0343 169.157 58.4842C166.741 59.9341 163.885 60.6591 160.59 60.6591ZM160.633 54.2882C162.42 54.2882 163.914 53.7976 165.115 52.8163C166.316 51.8204 167.209 50.4877 167.795 48.8181C168.396 47.1485 168.696 45.2885 168.696 43.2381C168.696 41.1731 168.396 39.3058 167.795 37.6362C167.209 35.952 166.316 34.6119 165.115 33.616C163.914 32.6201 162.42 32.1222 160.633 32.1222C158.803 32.1222 157.28 32.6201 156.064 33.616C154.863 34.6119 153.962 35.952 153.362 37.6362C152.776 39.3058 152.483 41.1731 152.483 43.2381C152.483 45.2885 152.776 47.1485 153.362 48.8181C153.962 50.4877 154.863 51.8204 156.064 52.8163C157.28 53.7976 158.803 54.2882 160.633 54.2882ZM206.466 35.1758L199.216 35.9666C199.011 35.2343 198.652 34.546 198.14 33.9016C197.642 33.2572 196.968 32.7373 196.119 32.3418C195.269 31.9464 194.229 31.7487 192.999 31.7487C191.344 31.7487 189.953 32.1075 188.825 32.8251C187.712 33.5428 187.163 34.4728 187.178 35.6151C187.163 36.5964 187.522 37.3946 188.254 38.0097C189.001 38.6248 190.231 39.1301 191.945 39.5255L197.7 40.7557C200.893 41.4441 203.266 42.5352 204.818 44.029C206.385 45.5229 207.176 47.478 207.191 49.8946C207.176 52.0182 206.554 53.8928 205.323 55.5185C204.108 57.1295 202.416 58.389 200.249 59.297C198.081 60.205 195.591 60.6591 192.78 60.6591C188.649 60.6591 185.325 59.795 182.806 58.0668C180.287 56.324 178.786 53.9001 178.302 50.7953L186.057 50.0483C186.409 51.5715 187.156 52.7212 188.298 53.4974C189.44 54.2736 190.927 54.6617 192.758 54.6617C194.647 54.6617 196.163 54.2736 197.305 53.4974C198.462 52.7212 199.041 51.7619 199.041 50.6195C199.041 49.6529 198.667 48.8547 197.92 48.225C197.188 47.5952 196.045 47.1119 194.493 46.775L188.737 45.5668C185.501 44.8931 183.106 43.7581 181.554 42.1617C180.001 40.5507 179.232 38.5149 179.247 36.0545C179.232 33.9748 179.796 32.1734 180.939 30.6503C182.096 29.1125 183.699 27.9262 185.75 27.0914C187.815 26.242 190.195 25.8172 192.889 25.8172C196.844 25.8172 199.956 26.6594 202.226 28.3436C204.511 30.0278 205.924 32.3052 206.466 35.1758ZM210.037 72.6538V26.2566H217.857V31.8366H218.319C218.729 31.0164 219.307 30.145 220.054 29.2223C220.801 28.285 221.812 27.4868 223.086 26.8278C224.36 26.1541 225.986 25.8172 227.963 25.8172C230.57 25.8172 232.92 26.4836 235.015 27.8164C237.124 29.1345 238.793 31.0896 240.023 33.6819C241.268 36.2595 241.891 39.423 241.891 43.1722C241.891 46.8776 241.283 50.0264 240.067 52.6186C238.852 55.2109 237.197 57.1881 235.102 58.5501C233.008 59.9121 230.636 60.5931 227.985 60.5931C226.051 60.5931 224.448 60.2709 223.174 59.6265C221.899 58.9821 220.874 58.2059 220.098 57.2979C219.336 56.3752 218.743 55.5038 218.319 54.6837H217.989V72.6538H210.037ZM217.835 43.1283C217.835 45.3105 218.143 47.2217 218.758 48.862C219.388 50.5023 220.288 51.7838 221.46 52.7065C222.646 53.6145 224.082 54.0685 225.766 54.0685C227.523 54.0685 228.995 53.5999 230.182 52.6626C231.368 51.7106 232.261 50.4145 232.862 48.7742C233.477 47.1192 233.784 45.2373 233.784 43.1283C233.784 41.034 233.484 39.174 232.884 37.5483C232.283 35.9227 231.39 34.6485 230.204 33.7258C229.017 32.8032 227.538 32.3418 225.766 32.3418C224.067 32.3418 222.624 32.7885 221.438 33.6819C220.252 34.5753 219.351 35.8275 218.736 37.4385C218.136 39.0495 217.835 40.9461 217.835 43.1283Z" fill="white"/><path d="M53.8702 40.1925C53.8702 40.1925 44.698 49.4149 40.5144 53.5882C36.2533 57.8388 29.8493 57.8378 25.5856 53.5839C21.2476 49.2557 12.3086 40.1925 12.3086 40.1925C12.3086 40.1925 15.654 41.9408 17.413 42.0813C20.6692 42.3415 23.4996 41.3193 25.8333 39.0261C28.1345 36.7646 30.9552 33.9683 33.0895 31.4971C35.4539 34.2453 38.2618 37.102 40.9565 39.5273C44.2661 42.0813 47.7043 42.7937 51.6037 41.3787C52.2001 41.1621 53.2874 40.4467 53.8702 40.1925Z" fill="#6039DB"/>
<path d="M18.3719 42.1711C12.605 42.1711 7.69922 37.2329 7.69922 31.4973C7.69922 25.7616 12.605 21.112 18.3719 21.112C24.6619 20.6504 33.0856 31.4973 33.0856 31.4973C33.0856 31.4973 26.5658 42.1711 18.3719 42.1711Z" fill="#9168F6"/>
<path d="M47.7995 42.1711C53.5665 42.1711 58.4723 37.2329 58.4723 31.4973C58.4723 25.7616 53.5665 21.112 47.7995 21.112C41.5096 20.6504 33.0859 31.4973 33.0859 31.4973C33.0859 31.4973 39.6056 42.1711 47.7995 42.1711Z" fill="#52B5F9"/>
</svg>
