<svg width="121" height="22" viewBox="0 0 121 22" fill="none" xmlns="http://www.w3.org/2000/svg">
<path d="M2.21295 10.4335H0V6.30492H2.21295V1.38324H7.63228V6.30492H11.3526V10.4335H7.63228V15.706C7.63228 16.9326 8.21993 17.547 9.39631 17.547C9.7371 17.547 10.0735 17.473 10.4067 17.3245C10.7365 17.177 11.0418 17.0066 11.3204 16.8169L13.4366 20.1191C12.7483 20.6514 11.9794 21.0696 11.1592 21.3577C10.3258 21.6548 9.47113 21.8017 8.59403 21.8017C7.3756 21.8017 6.35487 21.6323 5.53129 21.2941C4.70826 20.9554 4.05016 20.4835 3.55973 19.8818C3.0682 19.2783 2.71977 18.5532 2.51661 17.7059C2.31344 16.8591 2.21295 15.9378 2.21295 14.9431V10.4335Z" fill="#29CCA2"/>
<path d="M13.6672 21.0756H19.0903V6.28338H13.6672V21.0756Z" fill="#29CCA2"/>
<path d="M13.4501 4.35358H19.3073V0.065918H13.4501V4.35358Z" fill="#29CCA2"/>
<path d="M34.7102 19.2541C34.4 19.5969 34.0527 19.9044 33.6748 20.1709C33.2637 20.4661 32.7946 20.7285 32.2665 20.9603C31.7374 21.1932 31.1497 21.3769 30.5018 21.513C29.8546 21.6507 29.1526 21.7191 28.3976 21.7191C27.2529 21.7191 26.1808 21.5299 25.1771 21.1505C24.1734 20.7711 23.2987 20.2337 22.5541 19.5378C21.8101 18.8435 21.2262 18.0065 20.8064 17.0263C20.3849 16.0467 20.1755 14.956 20.1755 13.755C20.1755 12.6392 20.3849 11.601 20.8064 10.6416C21.2174 9.69723 21.8114 8.84365 22.5541 8.13009C23.2987 7.41393 24.1734 6.85467 25.1771 6.45504C26.1808 6.05487 27.2529 5.85424 28.3976 5.85424C29.9087 5.85424 31.1759 6.08712 32.2026 6.54962C33.2271 7.01266 34.0635 7.60309 34.7102 8.31925L31.5056 11.8907C31.2688 11.6174 30.9343 11.3222 30.5024 11.0062C30.0711 10.6902 29.4232 10.5317 28.5606 10.5317C27.8045 10.5317 27.1364 10.8225 26.5526 11.4009C25.9709 11.981 25.6795 12.7654 25.6795 13.7555C25.6795 14.2404 25.7599 14.6881 25.9217 15.0993C26.0841 15.5093 26.2945 15.857 26.5526 16.1423C26.8066 16.4228 27.1149 16.6486 27.459 16.806C27.8045 16.9646 28.1719 17.0427 28.5606 17.0427C28.97 17.0427 29.3374 16.9952 29.6605 16.8995C29.9564 16.8179 30.2397 16.6959 30.5024 16.537C30.7407 16.3894 30.9397 16.2364 31.1016 16.0778C31.2634 15.9215 31.3979 15.7886 31.5061 15.6831L34.7108 19.2546L34.7102 19.2541Z" fill="#29CCA2"/>
<path d="M34.7102 19.254C34.3999 19.5969 34.0526 19.9043 33.6748 20.1708C33.2636 20.466 32.7946 20.7284 32.2665 20.9602C31.7373 21.1931 31.1496 21.3768 30.5018 21.5129C29.8545 21.6507 29.1526 21.719 28.3976 21.719C27.2528 21.719 26.1808 21.5299 25.1771 21.1505C24.5271 20.9048 23.9312 20.5929 23.3898 20.2145L27.0074 16.5457C27.1491 16.6461 27.3002 16.7333 27.4589 16.806C27.8044 16.9645 28.1718 17.0427 28.5605 17.0427C28.97 17.0427 29.3373 16.9951 29.6604 16.8994C29.9564 16.8178 30.2397 16.6959 30.5023 16.537C30.7407 16.3894 30.9397 16.2363 31.1015 16.0778C31.2633 15.9214 31.3978 15.7886 31.506 15.6831L34.7107 19.2546L34.7102 19.254Z" fill="#2D3539"/>
<path fill-rule="evenodd" clip-rule="evenodd" d="M82.418 0.197632H76.967V20.5967C77.7618 20.8936 78.7519 21.1686 79.9355 21.4211C81.1163 21.6754 82.3529 21.8016 83.6436 21.8016C86.6542 21.8016 88.9323 21.0778 90.4811 19.6302C92.0293 18.1831 92.8034 16.1385 92.8034 13.4953C92.8034 12.5238 92.6563 11.5934 92.3677 10.7055C92.0768 9.81717 91.657 9.03049 91.1081 8.34385C90.562 7.65612 89.872 7.10669 89.0449 6.69504C88.2189 6.28284 87.2764 6.07728 86.224 6.07728C85.6155 6.08549 85.0119 6.18689 84.4342 6.37796C84.0661 6.4997 83.7094 6.65336 83.3681 6.83718C83.0083 7.03178 82.6865 7.28955 82.418 7.59817V0.197632ZM33.6256 13.87C33.6256 12.774 33.8224 11.7414 34.216 10.7722C34.6107 9.8035 35.1596 8.95996 35.8637 8.2438C36.5673 7.52764 37.4092 6.96456 38.3905 6.5529C39.3701 6.14289 40.4575 5.93679 41.6509 5.93679C42.8454 5.93679 43.9317 6.14289 44.9114 6.5529C45.8927 6.96456 46.7335 7.52764 47.4409 8.2438C48.1434 8.95996 48.6901 9.8035 49.0859 10.7722C49.4811 11.7415 49.679 12.7742 49.679 13.8698C49.679 14.9861 49.4811 16.0237 49.0859 16.982C48.6901 17.9415 48.1434 18.7785 47.4409 19.4946C46.7335 20.2108 45.8927 20.7739 44.9114 21.1855C43.9317 21.5955 42.8449 21.8016 41.6509 21.8016C40.4575 21.8016 39.3701 21.5961 38.3905 21.1855C37.4092 20.7744 36.5673 20.2108 35.8637 19.4946C35.1559 18.7727 34.5963 17.9191 34.2165 16.982C33.8219 16.0238 33.6256 14.9868 33.6256 13.87ZM41.543 17.0848C42.4339 17.0848 43.1451 16.7841 43.6764 16.1795C44.2056 15.576 44.4724 14.8062 44.4724 13.8698C44.4724 12.9322 44.2056 12.1625 43.6764 11.5595C43.145 10.9559 42.4343 10.6536 41.5432 10.6536C40.6521 10.6536 39.9414 10.9559 39.4111 11.5595C38.8809 12.1625 38.6152 12.9322 38.6152 13.8698C38.6152 14.8062 38.8803 15.5754 39.4117 16.1795C39.9408 16.7841 40.652 17.0848 41.543 17.0848ZM55.7675 6.31619H50.5466V21.1582H55.9604V13.2312C55.9604 12.432 56.1999 11.7995 56.6793 11.337C57.1615 10.8745 57.7432 10.6416 58.4254 10.6416C59.1744 10.6416 59.7003 10.8745 60.0108 11.337C60.3208 11.7995 60.4744 12.432 60.4744 13.2312V21.1582H65.5674V13.2312C65.5674 12.432 65.7964 11.7995 66.2556 11.337C66.7138 10.8745 67.3086 10.6416 68.0329 10.6416C68.76 10.6416 69.2837 10.8745 69.6019 11.337C69.9228 11.7995 70.0841 12.432 70.0841 13.2307V21.1576H75.4952V11.812C75.4952 10.0014 74.9895 8.56963 73.9754 7.51616C72.9613 6.46379 71.4814 5.93679 69.539 5.93679C69.0813 5.9402 68.6252 5.99318 68.1789 6.09478C67.6967 6.20029 67.2375 6.34789 66.8001 6.53705C66.3736 6.72164 65.9615 6.938 65.5674 7.18432C65.1841 7.4276 64.8742 7.67416 64.6391 7.92727C64.5325 7.79989 64.3843 7.62659 64.1908 7.40573C63.9978 7.18432 63.7321 6.96346 63.391 6.7426C63.0466 6.52119 62.6267 6.33259 62.1238 6.17459C61.6241 6.0166 61.0189 5.93679 60.3153 5.93679C59.5467 5.93679 58.7726 6.09478 57.993 6.41076C57.214 6.72729 56.5361 7.24227 55.9604 7.95789L55.7675 6.31619ZM82.3906 17.1931C82.8925 17.4063 83.5387 17.514 84.327 17.514C85.2241 17.514 85.9561 17.2133 86.5252 16.6163C87.0943 16.0177 87.3802 15.067 87.3802 13.7626C87.3802 13.4209 87.3349 13.0639 87.2469 12.6889C87.1657 12.3301 87.0217 11.9884 86.8215 11.6797C86.6261 11.3823 86.3683 11.1308 86.066 10.9428C85.7588 10.7498 85.398 10.6531 84.9836 10.6531C84.0624 10.6531 83.4026 10.9324 82.9969 11.4867C82.5907 12.0438 82.3901 12.7376 82.3901 13.5713V17.1931H82.3906ZM100.94 17.0848C101.831 17.0848 102.541 16.7841 103.072 16.1795C103.603 15.576 103.867 14.8062 103.867 13.8698C103.867 12.9322 103.603 12.1625 103.072 11.5595C102.541 10.9559 101.831 10.6536 100.94 10.6536C100.049 10.6536 99.3368 10.9559 98.8054 11.5595C98.2746 12.1625 98.01 12.9322 98.01 13.8698C98.01 14.8062 98.2746 15.5754 98.8054 16.1795C99.3368 16.7841 100.049 17.0848 100.94 17.0848ZM93.6141 10.7722C93.2183 11.7414 93.0204 12.774 93.0204 13.87V13.8698V13.8703V13.87C93.0204 14.9868 93.2183 16.0238 93.6141 16.982C93.9928 17.9196 94.5525 18.7734 95.2612 19.4946C95.9637 20.2108 96.804 20.7744 97.7847 21.1855C98.7661 21.5961 99.8437 21.8016 101.038 21.8016C102.231 21.8016 103.328 21.5955 104.309 21.1855C105.29 20.7739 106.131 20.2108 106.836 19.4946C107.543 18.772 108.103 17.9186 108.483 16.982C108.876 16.0237 109.074 14.9861 109.074 13.8698C109.074 12.7742 108.876 11.7415 108.483 10.7722C108.088 9.8035 107.539 8.95996 106.836 8.2438C106.131 7.52764 105.29 6.96456 104.309 6.5529C103.329 6.14289 102.241 5.93679 101.049 5.93679C99.854 5.93679 98.766 6.14289 97.7853 6.5529C96.804 6.96456 95.9637 7.52764 95.2612 8.2438C94.5555 8.95996 94.0066 9.8035 93.6141 10.7722Z" fill="#2D3539"/>
<path fill-rule="evenodd" clip-rule="evenodd" d="M118.26 8.91873C117.406 9.77616 116.372 10.2049 115.16 10.2049C113.947 10.2049 112.916 9.77616 112.065 8.91873C111.219 8.06527 110.795 7.03119 110.795 5.81649C110.795 4.61371 111.223 3.58559 112.077 2.73212C112.928 1.88263 113.955 1.45789 115.16 1.45789C116.372 1.45789 117.406 1.88263 118.26 2.73212C119.115 3.58162 119.542 4.60974 119.542 5.81649C119.542 7.02722 119.115 8.0613 118.26 8.91873ZM112.495 8.49597C113.226 9.23431 114.114 9.60348 115.16 9.60348C116.205 9.60348 117.094 9.23431 117.825 8.49597C118.557 7.75762 118.922 6.86446 118.922 5.81649C118.922 4.77646 118.557 3.88926 117.825 3.15488C117.09 2.41654 116.201 2.04737 115.16 2.04737C114.122 2.04737 113.236 2.41654 112.501 3.15488C111.769 3.88926 111.404 4.77646 111.404 5.81649C111.404 6.86446 111.767 7.75762 112.495 8.49597ZM114.242 8.20417V6.31068H114.909C115.359 6.31068 115.673 6.36228 115.851 6.46549C116.154 6.64412 116.305 7.01131 116.305 7.56705V7.94813L116.322 8.10295C116.326 8.1228 116.33 8.14066 116.334 8.15654L116.346 8.20417H117.139L117.11 8.14463C117.09 8.10493 117.076 8.02157 117.068 7.89454C117.06 7.76752 117.056 7.64843 117.056 7.53728V7.18597C117.056 6.94383 116.968 6.69573 116.794 6.44167C116.619 6.18762 116.342 6.03082 115.965 5.97128C116.263 5.92364 116.495 5.84624 116.662 5.73906C116.976 5.53661 117.133 5.22103 117.133 4.79231C117.133 4.18893 116.885 3.78403 116.388 3.57762C116.11 3.4625 115.673 3.40494 115.076 3.40494H113.395V8.20417H114.242ZM114.242 5.72119H115.005C115.363 5.72119 115.631 5.68547 115.81 5.61402C116.14 5.48302 116.305 5.23293 116.305 4.86376C116.305 4.51444 116.198 4.28023 115.986 4.16115C115.773 4.04206 115.432 3.98251 114.963 3.98251H114.242V5.72119Z" fill="#2D3539"/>
</svg>
